<?xml version="1.0" encoding="UTF-8" standalone="no"?>
<!DOCTYPE svg PUBLIC "-//W3C//DTD SVG 1.1//EN"
 "http://www.w3.org/Graphics/SVG/1.1/DTD/svg11.dtd">
<!-- Generated by graphviz version 2.40.1 (20161225.0304)
 -->
<!-- Title: dependency&#45;cruiser output Pages: 1 -->
<svg width="681pt" height="233pt"
 viewBox="0.00 0.00 681.00 233.00" xmlns="http://www.w3.org/2000/svg" xmlns:xlink="http://www.w3.org/1999/xlink">
<g id="graph0" class="graph" transform="scale(1 1) rotate(0) translate(4 229)">
<title>dependency&#45;cruiser output</title>
<polygon fill="#ffffff" stroke="transparent" points="-4,4 -4,-229 677,-229 677,4 -4,4"/>
<g id="clust1" class="cluster">
<title>cluster_src</title>
<polygon fill="#ffffff" stroke="#000000" stroke-width=".4" points="8,-8 8,-217 611,-217 611,-8 8,-8"/>
<text text-anchor="middle" x="309.5" y="-206.6" font-family="monospace" font-size="8.00" fill="#000000">src</text>
</g>
<g id="clust2" class="cluster">
<title>cluster_src/function</title>
<polygon fill="#ffffff" stroke="#000000" stroke-width=".4" points="196,-16 196,-115 414,-115 414,-16 196,-16"/>
<text text-anchor="middle" x="305" y="-104.6" font-family="monospace" font-size="8.00" fill="#000000">function</text>
</g>
<g id="clust3" class="cluster">
<title>cluster_src/messages</title>
<polygon fill="#ffffff" stroke="#000000" stroke-width=".4" points="422,-16 422,-115 603,-115 603,-16 422,-16"/>
<text text-anchor="middle" x="512.5" y="-104.6" font-family="monospace" font-size="8.00" fill="#000000">messages</text>
</g>
<g id="clust4" class="cluster">
<title>cluster_src/results</title>
<polygon fill="#ffffff" stroke="#000000" stroke-width=".4" points="16,-16 16,-64 158,-64 158,-16 16,-16"/>
<text text-anchor="middle" x="87" y="-53.6" font-family="monospace" font-size="8.00" fill="#000000">results</text>
</g>
<!-- @babel -->
<g id="node1" class="node">
<title>@babel</title>
<g id="a_node1"><a xlink:href="@babel" xlink:title="@babel">
<polygon fill="#f6f6aa" stroke="transparent" stroke-width=".4" points="673,-90 619,-90 619,-75 673,-75 673,-90"/>
<text text-anchor="middle" x="646" y="-81.2" font-family="monospace" font-size="6.00" fill="#000000">@babel</text>
</a>
</g>
</g>
<!-- ava -->
<g id="node2" class="node">
<title>ava</title>
<g id="a_node2"><a xlink:href="ava" xlink:title="ava">
<polygon fill="#f6f6aa" stroke="transparent" stroke-width=".4" points="673,-141 619,-141 619,-126 673,-126 673,-141"/>
<text text-anchor="middle" x="646" y="-132.2" font-family="monospace" font-size="6.00" fill="#000000">ava</text>
</a>
</g>
</g>
<!-- src/Result.js -->
<g id="node3" class="node">
<title>src/Result.js</title>
<g id="a_node3"><a xlink:href="src/Result.js" xlink:title="Result.js">
<polygon fill="#f6f6aa" stroke="transparent" stroke-width=".4" points="70,-90 16,-90 16,-75 70,-75 70,-90"/>
<text text-anchor="middle" x="43" y="-81.2" font-family="monospace" font-size="6.00" fill="#000000">Result.js</text>
</a>
</g>
</g>
<!-- src/results/Failure.js -->
<g id="node4" class="node">
<title>src/results/Failure.js</title>
<g id="a_node4"><a xlink:href="src/results/Failure.js" xlink:title="Failure.js">
<polygon fill="#f6f6aa" stroke="transparent" stroke-width=".4" points="150,-39 96,-39 96,-24 150,-24 150,-39"/>
<text text-anchor="middle" x="123" y="-30.2" font-family="monospace" font-size="6.00" fill="#000000">Failure.js</text>
</a>
</g>
</g>
<!-- src/Result.js&#45;&gt;src/results/Failure.js -->
<g id="edge1" class="edge">
<title>src/Result.js&#45;&gt;src/results/Failure.js</title>
<path fill="none" stroke="#6677dd" stroke-width=".7" stroke-opacity="0.666667" d="M70.0706,-82C77.3515,-82 83.25,-82 83.25,-82 83.25,-82 83.25,-31 83.25,-31 83.25,-31 90.8271,-31 90.8271,-31"/>
<polygon fill="#6677dd" fill-opacity="0.666667" stroke="#6677dd" stroke-width=".7" stroke-opacity="0.666667" points="90.8272,-32.7501 95.8271,-31 90.8271,-29.2501 90.8272,-32.7501"/>
</g>
<!-- src/results/Success.js -->
<g id="node5" class="node">
<title>src/results/Success.js</title>
<g id="a_node5"><a xlink:href="src/results/Success.js" xlink:title="Success.js">
<polygon fill="#f6f6aa" stroke="transparent" stroke-width=".4" points="78,-39 24,-39 24,-24 78,-24 78,-39"/>
<text text-anchor="middle" x="51" y="-30.2" font-family="monospace" font-size="6.00" fill="#000000">Success.js</text>
</a>
</g>
</g>
<!-- src/Result.js&#45;&gt;src/results/Success.js -->
<g id="edge2" class="edge">
<title>src/Result.js&#45;&gt;src/results/Success.js</title>
<path fill="none" stroke="#6677dd" stroke-width=".7" stroke-opacity="0.666667" d="M47,-74.9748C47,-74.9748 47,-44.0561 47,-44.0561"/>
<polygon fill="#6677dd" fill-opacity="0.666667" stroke="#6677dd" stroke-width=".7" stroke-opacity="0.666667" points="48.7501,-44.0561 47,-39.0561 45.2501,-44.0561 48.7501,-44.0561"/>
</g>
<!-- src/defaultErrorHandler.js -->
<g id="node6" class="node">
<title>src/defaultErrorHandler.js</title>
<g id="a_node6"><a xlink:href="src/defaultErrorHandler.js" xlink:title="defaultErrorHandler.js">
<polygon fill="#f6f6aa" stroke="transparent" stroke-width=".4" points="187.5,-90 88.5,-90 88.5,-75 187.5,-75 187.5,-90"/>
<text text-anchor="middle" x="138" y="-81.2" font-family="monospace" font-size="6.00" fill="#000000">defaultErrorHandler.js</text>
</a>
</g>
</g>
<!-- src/function/command.js -->
<g id="node7" class="node">
<title>src/function/command.js</title>
<g id="a_node7"><a xlink:href="src/function/command.js" xlink:title="command.js">
<polygon fill="#f6f6aa" stroke="transparent" stroke-width=".4" points="258,-39 204,-39 204,-24 258,-24 258,-39"/>
<text text-anchor="middle" x="231" y="-30.2" font-family="monospace" font-size="6.00" fill="#000000">command.js</text>
</a>
</g>
</g>
<!-- src/function/getFunction.js -->
<g id="node8" class="node">
<title>src/function/getFunction.js</title>
<g id="a_node8"><a xlink:href="src/function/getFunction.js" xlink:title="getFunction.js">
<polygon fill="#f6f6aa" stroke="transparent" stroke-width=".4" points="371.5,-90 302.5,-90 302.5,-75 371.5,-75 371.5,-90"/>
<text text-anchor="middle" x="337" y="-81.2" font-family="monospace" font-size="6.00" fill="#000000">getFunction.js</text>
</a>
</g>
</g>
<!-- src/function/getFunction.js&#45;&gt;src/function/command.js -->
<g id="edge3" class="edge">
<title>src/function/getFunction.js&#45;&gt;src/function/command.js</title>
<path fill="none" stroke="#6677dd" stroke-width=".7" stroke-opacity="0.666667" d="M302.2916,-82C271.3776,-82 231,-82 231,-82 231,-82 231,-44.3906 231,-44.3906"/>
<polygon fill="#6677dd" fill-opacity="0.666667" stroke="#6677dd" stroke-width=".7" stroke-opacity="0.666667" points="232.7501,-44.3906 231,-39.3906 229.2501,-44.3907 232.7501,-44.3906"/>
</g>
<!-- src/function/parse.js -->
<g id="node9" class="node">
<title>src/function/parse.js</title>
<g id="a_node9"><a xlink:href="src/function/parse.js" xlink:title="parse.js">
<polygon fill="#f6f6aa" stroke="transparent" stroke-width=".4" points="330,-39 276,-39 276,-24 330,-24 330,-39"/>
<text text-anchor="middle" x="303" y="-30.2" font-family="monospace" font-size="6.00" fill="#000000">parse.js</text>
</a>
</g>
</g>
<!-- src/function/getFunction.js&#45;&gt;src/function/parse.js -->
<g id="edge4" class="edge">
<title>src/function/getFunction.js&#45;&gt;src/function/parse.js</title>
<path fill="none" stroke="#6677dd" stroke-width=".7" stroke-opacity="0.666667" d="M316.25,-74.9748C316.25,-74.9748 316.25,-44.0561 316.25,-44.0561"/>
<polygon fill="#6677dd" fill-opacity="0.666667" stroke="#6677dd" stroke-width=".7" stroke-opacity="0.666667" points="318.0001,-44.0561 316.25,-39.0561 314.5001,-44.0561 318.0001,-44.0561"/>
</g>
<!-- src/function/validate.js -->
<g id="node10" class="node">
<title>src/function/validate.js</title>
<g id="a_node10"><a xlink:href="src/function/validate.js" xlink:title="validate.js">
<polygon fill="#f6f6aa" stroke="transparent" stroke-width=".4" points="406,-39 348,-39 348,-24 406,-24 406,-39"/>
<text text-anchor="middle" x="377" y="-30.2" font-family="monospace" font-size="6.00" fill="#000000">validate.js</text>
</a>
</g>
</g>
<!-- src/function/getFunction.js&#45;&gt;src/function/validate.js -->
<g id="edge5" class="edge">
<title>src/function/getFunction.js&#45;&gt;src/function/validate.js</title>
<path fill="none" stroke="#6677dd" stroke-width=".7" stroke-opacity="0.666667" d="M359.75,-74.9748C359.75,-74.9748 359.75,-44.0561 359.75,-44.0561"/>
<polygon fill="#6677dd" fill-opacity="0.666667" stroke="#6677dd" stroke-width=".7" stroke-opacity="0.666667" points="361.5001,-44.0561 359.75,-39.0561 358.0001,-44.0561 361.5001,-44.0561"/>
</g>
<!-- src/index.js -->
<g id="node11" class="node">
<title>src/index.js</title>
<g id="a_node11"><a xlink:href="src/index.js" xlink:title="index.js">
<polygon fill="#f6f6aa" stroke="transparent" stroke-width=".4" points="543,-192 489,-192 489,-177 543,-177 543,-192"/>
<text text-anchor="middle" x="516" y="-183.2" font-family="monospace" font-size="6.00" fill="#000000">index.js</text>
</a>
</g>
</g>
<!-- src/index.js&#45;&gt;ava -->
<g id="edge7" class="edge">
<title>src/index.js&#45;&gt;ava</title>
<path fill="none" stroke="#6677dd" stroke-width=".7" stroke-opacity="0.666667" d="M528.6667,-176.6563C528.6667,-163.165 528.6667,-137 528.6667,-137 528.6667,-137 613.7865,-137 613.7865,-137"/>
<polygon fill="#6677dd" fill-opacity="0.666667" stroke="#6677dd" stroke-width=".7" stroke-opacity="0.666667" points="613.7865,-138.7501 618.7865,-137 613.7864,-135.2501 613.7865,-138.7501"/>
</g>
<!-- src/test.js -->
<g id="node12" class="node">
<title>src/test.js</title>
<g id="a_node12"><a xlink:href="src/test.js" xlink:title="test.js">
<polygon fill="#f6f6aa" stroke="transparent" stroke-width=".4" points="424,-141 370,-141 370,-126 424,-126 424,-141"/>
<text text-anchor="middle" x="397" y="-132.2" font-family="monospace" font-size="6.00" fill="#000000">test.js</text>
</a>
</g>
</g>
<!-- src/index.js&#45;&gt;src/test.js -->
<g id="edge6" class="edge">
<title>src/index.js&#45;&gt;src/test.js</title>
<path fill="none" stroke="#6677dd" stroke-width=".7" stroke-opacity="0.666667" d="M496.25,-176.901C496.25,-162.5754 496.25,-133 496.25,-133 496.25,-133 429.1205,-133 429.1205,-133"/>
<polygon fill="#6677dd" fill-opacity="0.666667" stroke="#6677dd" stroke-width=".7" stroke-opacity="0.666667" points="429.1205,-131.2501 424.1205,-133 429.1205,-134.7501 429.1205,-131.2501"/>
</g>
<!-- src/test.js&#45;&gt;@babel -->
<g id="edge14" class="edge">
<title>src/test.js&#45;&gt;@babel</title>
<path fill="none" stroke="#6677dd" stroke-width=".7" stroke-opacity="0.666667" d="M424.0796,-129C458.2179,-129 512.5,-129 512.5,-129 512.5,-129 512.5,-85 512.5,-85 512.5,-85 613.9843,-85 613.9843,-85"/>
<polygon fill="#6677dd" fill-opacity="0.666667" stroke="#6677dd" stroke-width=".7" stroke-opacity="0.666667" points="613.9843,-86.7501 618.9843,-85 613.9842,-83.2501 613.9843,-86.7501"/>
</g>
<!-- src/test.js&#45;&gt;src/Result.js -->
<g id="edge13" class="edge">
<title>src/test.js&#45;&gt;src/Result.js</title>
<path fill="none" stroke="#6677dd" stroke-width=".7" stroke-opacity="0.666667" d="M369.81,-136C286.9165,-136 43,-136 43,-136 43,-136 43,-95.3941 43,-95.3941"/>
<polygon fill="#6677dd" fill-opacity="0.666667" stroke="#6677dd" stroke-width=".7" stroke-opacity="0.666667" points="44.7501,-95.3941 43,-90.3941 41.2501,-95.3941 44.7501,-95.3941"/>
</g>
<!-- src/test.js&#45;&gt;src/defaultErrorHandler.js -->
<g id="edge10" class="edge">
<title>src/test.js&#45;&gt;src/defaultErrorHandler.js</title>
<path fill="none" stroke="#6677dd" stroke-width=".7" stroke-opacity="0.666667" d="M369.772,-131C303.2747,-131 138,-131 138,-131 138,-131 138,-95.0781 138,-95.0781"/>
<polygon fill="#6677dd" fill-opacity="0.666667" stroke="#6677dd" stroke-width=".7" stroke-opacity="0.666667" points="139.7501,-95.0781 138,-90.0781 136.2501,-95.0782 139.7501,-95.0781"/>
</g>
<!-- src/test.js&#45;&gt;src/function/getFunction.js -->
<g id="edge11" class="edge">
<title>src/test.js&#45;&gt;src/function/getFunction.js</title>
<path fill="none" stroke="#6677dd" stroke-width=".7" stroke-opacity="0.666667" d="M388.75,-125.6059C388.75,-110.724 388.75,-80 388.75,-80 388.75,-80 376.518,-80 376.518,-80"/>
<polygon fill="#6677dd" fill-opacity="0.666667" stroke="#6677dd" stroke-width=".7" stroke-opacity="0.666667" points="376.518,-78.2501 371.518,-80 376.518,-81.7501 376.518,-78.2501"/>
</g>
<!-- src/messages/ErrorMessage.js -->
<g id="node14" class="node">
<title>src/messages/ErrorMessage.js</title>
<g id="a_node14"><a xlink:href="src/messages/ErrorMessage.js" xlink:title="ErrorMessage.js">
<polygon fill="#f6f6aa" stroke="transparent" stroke-width=".4" points="503.5,-90 430.5,-90 430.5,-75 503.5,-75 503.5,-90"/>
<text text-anchor="middle" x="467" y="-81.2" font-family="monospace" font-size="6.00" fill="#000000">ErrorMessage.js</text>
</a>
</g>
</g>
<!-- src/test.js&#45;&gt;src/messages/ErrorMessage.js -->
<g id="edge12" class="edge">
<title>src/test.js&#45;&gt;src/messages/ErrorMessage.js</title>
<path fill="none" stroke="#6677dd" stroke-width=".7" stroke-opacity="0.666667" d="M415,-125.9219C415,-112.2813 415,-85 415,-85 415,-85 425.3205,-85 425.3205,-85"/>
<polygon fill="#6677dd" fill-opacity="0.666667" stroke="#6677dd" stroke-width=".7" stroke-opacity="0.666667" points="425.3205,-86.7501 430.3205,-85 425.3204,-83.2501 425.3205,-86.7501"/>
</g>
<!-- src/messages/CompileError.js -->
<g id="node13" class="node">
<title>src/messages/CompileError.js</title>
<g id="a_node13"><a xlink:href="src/messages/CompileError.js" xlink:title="CompileError.js">
<polygon fill="#f6f6aa" stroke="transparent" stroke-width=".4" points="503.5,-39 430.5,-39 430.5,-24 503.5,-24 503.5,-39"/>
<text text-anchor="middle" x="467" y="-30.2" font-family="monospace" font-size="6.00" fill="#000000">CompileError.js</text>
</a>
</g>
</g>
<!-- src/messages/ErrorMessage.js&#45;&gt;src/messages/CompileError.js -->
<g id="edge8" class="edge">
<title>src/messages/ErrorMessage.js&#45;&gt;src/messages/CompileError.js</title>
<path fill="none" stroke="#6677dd" stroke-width=".7" stroke-opacity="0.666667" d="M467,-74.9748C467,-74.9748 467,-44.0561 467,-44.0561"/>
<polygon fill="#6677dd" fill-opacity="0.666667" stroke="#6677dd" stroke-width=".7" stroke-opacity="0.666667" points="468.7501,-44.0561 467,-39.0561 465.2501,-44.0561 468.7501,-44.0561"/>
</g>
<!-- src/messages/RuntimeError.js -->
<g id="node15" class="node">
<title>src/messages/RuntimeError.js</title>
<g id="a_node15"><a xlink:href="src/messages/RuntimeError.js" xlink:title="RuntimeError.js">
<polygon fill="#f6f6aa" stroke="transparent" stroke-width=".4" points="594.5,-39 521.5,-39 521.5,-24 594.5,-24 594.5,-39"/>
<text text-anchor="middle" x="558" y="-30.2" font-family="monospace" font-size="6.00" fill="#000000">RuntimeError.js</text>
</a>
</g>
</g>
<!-- src/messages/ErrorMessage.js&#45;&gt;src/messages/RuntimeError.js -->
<g id="edge9" class="edge">
<title>src/messages/ErrorMessage.js&#45;&gt;src/messages/RuntimeError.js</title>
<path fill="none" stroke="#6677dd" stroke-width=".7" stroke-opacity="0.666667" d="M503.8348,-80C520.2005,-80 535.8333,-80 535.8333,-80 535.8333,-80 535.8333,-44.0781 535.8333,-44.0781"/>
<polygon fill="#6677dd" fill-opacity="0.666667" stroke="#6677dd" stroke-width=".7" stroke-opacity="0.666667" points="537.5834,-44.0781 535.8333,-39.0781 534.0834,-44.0782 537.5834,-44.0781"/>
</g>
</g>
</svg>
