<?xml version="1.0" encoding="UTF-8" standalone="no"?>
<!DOCTYPE svg PUBLIC "-//W3C//DTD SVG 1.1//EN"
 "http://www.w3.org/Graphics/SVG/1.1/DTD/svg11.dtd">
<!-- Generated by graphviz version 2.40.1 (20161225.0304)
 -->
<!-- Title: dependency&#45;cruiser output Pages: 1 -->
<svg width="436pt" height="425pt"
 viewBox="0.00 0.00 436.00 424.50" xmlns="http://www.w3.org/2000/svg" xmlns:xlink="http://www.w3.org/1999/xlink">
<g id="graph0" class="graph" transform="scale(1 1) rotate(0) translate(4 420.5)">
<title>dependency&#45;cruiser output</title>
<polygon fill="#ffffff" stroke="transparent" points="-4,4 -4,-420.5 432,-420.5 432,4 -4,4"/>
<g id="clust1" class="cluster">
<title>cluster_src</title>
<polygon fill="#ffffff" stroke="#000000" stroke-width=".4" points="8,-23.5 8,-408.5 420,-408.5 420,-23.5 8,-23.5"/>
<text text-anchor="middle" x="214" y="-398.1" font-family="monospace" font-size="8.00" fill="#000000">src</text>
</g>
<g id="clust2" class="cluster">
<title>cluster_src/function</title>
<polygon fill="#ffffff" stroke="#000000" stroke-width=".4" points="203,-88.5 203,-203.5 404.5,-203.5 404.5,-88.5 203,-88.5"/>
<text text-anchor="middle" x="303.75" y="-193.1" font-family="monospace" font-size="8.00" fill="#000000">function</text>
</g>
<g id="clust3" class="cluster">
<title>cluster_src/messages</title>
<polygon fill="#ffffff" stroke="#000000" stroke-width=".4" points="201,-211.5 201,-293.5 412,-293.5 412,-211.5 201,-211.5"/>
<text text-anchor="middle" x="306.5" y="-283.1" font-family="monospace" font-size="8.00" fill="#000000">messages</text>
</g>
<g id="clust4" class="cluster">
<title>cluster_src/results</title>
<polygon fill="#ffffff" stroke="#000000" stroke-width=".4" points="210.5,-301.5 210.5,-383.5 402.5,-383.5 402.5,-301.5 210.5,-301.5"/>
<text text-anchor="middle" x="306.5" y="-373.1" font-family="monospace" font-size="8.00" fill="#000000">results</text>
</g>
<g id="clust5" class="cluster">
<title>cluster_src/wrapper</title>
<polygon fill="#ffffff" stroke="#000000" stroke-width=".4" points="98,-31.5 98,-80.5 303,-80.5 303,-31.5 98,-31.5"/>
<text text-anchor="middle" x="200.5" y="-70.1" font-family="monospace" font-size="8.00" fill="#000000">wrapper</text>
</g>
<!-- @babel -->
<g id="node1" class="node">
<title>@babel</title>
<g id="a_node1"><a xlink:href="@babel" xlink:title="@babel">
<polygon fill="#f6f6aa" stroke="transparent" stroke-width=".4" points="272.5,-15 218.5,-15 218.5,0 272.5,0 272.5,-15"/>
<text text-anchor="middle" x="245.5" y="-6.2" font-family="monospace" font-size="6.00" fill="#000000">@babel</text>
</a>
</g>
</g>
<!-- ava -->
<g id="node2" class="node">
<title>ava</title>
<g id="a_node2"><a xlink:href="ava" xlink:title="ava">
<polygon fill="#f6f6aa" stroke="transparent" stroke-width=".4" points="160,-15 106,-15 106,0 160,0 160,-15"/>
<text text-anchor="middle" x="133" y="-6.2" font-family="monospace" font-size="6.00" fill="#000000">ava</text>
</a>
</g>
</g>
<!-- src/function/command.js -->
<g id="node3" class="node">
<title>src/function/command.js</title>
<g id="a_node3"><a xlink:href="src/function/command.js" xlink:title="command.js">
<polygon fill="#f6f6aa" stroke="transparent" stroke-width=".4" points="394.5,-112 340.5,-112 340.5,-97 394.5,-97 394.5,-112"/>
<text text-anchor="middle" x="367.5" y="-103.2" font-family="monospace" font-size="6.00" fill="#000000">command.js</text>
</a>
</g>
</g>
<!-- src/function/getFunction.js -->
<g id="node4" class="node">
<title>src/function/getFunction.js</title>
<g id="a_node4"><a xlink:href="src/function/getFunction.js" xlink:title="getFunction.js">
<polygon fill="#f6f6aa" stroke="transparent" stroke-width=".4" points="280,-128 211,-128 211,-113 280,-113 280,-128"/>
<text text-anchor="middle" x="245.5" y="-119.2" font-family="monospace" font-size="6.00" fill="#000000">getFunction.js</text>
</a>
</g>
</g>
<!-- src/function/getFunction.js&#45;&gt;src/function/command.js -->
<g id="edge1" class="edge">
<title>src/function/getFunction.js&#45;&gt;src/function/command.js</title>
<path fill="none" stroke="#6677dd" stroke-width=".7" stroke-opacity="0.666667" d="M280.0501,-118C319.0113,-118 377,-118 377,-118 377,-118 377,-117.1964 377,-117.1964"/>
<polygon fill="#6677dd" fill-opacity="0.666667" stroke="#6677dd" stroke-width=".7" stroke-opacity="0.666667" points="378.7501,-117.1964 377,-112.1964 375.2501,-117.1965 378.7501,-117.1964"/>
</g>
<!-- src/function/parse.js -->
<g id="node5" class="node">
<title>src/function/parse.js</title>
<g id="a_node5"><a xlink:href="src/function/parse.js" xlink:title="parse.js">
<polygon fill="#f6f6aa" stroke="transparent" stroke-width=".4" points="394.5,-145 340.5,-145 340.5,-130 394.5,-130 394.5,-145"/>
<text text-anchor="middle" x="367.5" y="-136.2" font-family="monospace" font-size="6.00" fill="#000000">parse.js</text>
</a>
</g>
</g>
<!-- src/function/getFunction.js&#45;&gt;src/function/parse.js -->
<g id="edge2" class="edge">
<title>src/function/getFunction.js&#45;&gt;src/function/parse.js</title>
<path fill="none" stroke="#6677dd" stroke-width=".7" stroke-opacity="0.666667" d="M280.1705,-123C313.5487,-123 359,-123 359,-123 359,-123 359,-124.9103 359,-124.9103"/>
<polygon fill="#6677dd" fill-opacity="0.666667" stroke="#6677dd" stroke-width=".7" stroke-opacity="0.666667" points="357.2501,-124.9102 359,-129.9103 360.7501,-124.9103 357.2501,-124.9102"/>
</g>
<!-- src/function/validate.js -->
<g id="node6" class="node">
<title>src/function/validate.js</title>
<g id="a_node6"><a xlink:href="src/function/validate.js" xlink:title="validate.js">
<polygon fill="#f6f6aa" stroke="transparent" stroke-width=".4" points="396.5,-178 338.5,-178 338.5,-163 396.5,-163 396.5,-178"/>
<text text-anchor="middle" x="367.5" y="-169.2" font-family="monospace" font-size="6.00" fill="#000000">validate.js</text>
</a>
</g>
</g>
<!-- src/function/getFunction.js&#45;&gt;src/function/validate.js -->
<g id="edge3" class="edge">
<title>src/function/getFunction.js&#45;&gt;src/function/validate.js</title>
<path fill="none" stroke="#6677dd" stroke-width=".7" stroke-opacity="0.666667" d="M246,-128.3125C246,-142.375 246,-170.5 246,-170.5 246,-170.5 333.3977,-170.5 333.3977,-170.5"/>
<polygon fill="#6677dd" fill-opacity="0.666667" stroke="#6677dd" stroke-width=".7" stroke-opacity="0.666667" points="333.3978,-172.2501 338.3977,-170.5 333.3977,-168.7501 333.3978,-172.2501"/>
</g>
<!-- src/index.js -->
<g id="node7" class="node">
<title>src/index.js</title>
<g id="a_node7"><a xlink:href="src/index.js" xlink:title="index.js">
<polygon fill="#f6f6aa" stroke="transparent" stroke-width=".4" points="70,-51 16,-51 16,-36 70,-36 70,-51"/>
<text text-anchor="middle" x="43" y="-42.2" font-family="monospace" font-size="6.00" fill="#000000">index.js</text>
</a>
</g>
</g>
<!-- src/index.js&#45;&gt;ava -->
<g id="edge5" class="edge">
<title>src/index.js&#45;&gt;ava</title>
<path fill="none" stroke="#6677dd" stroke-width=".7" stroke-opacity="0.666667" d="M43,-35.8653C43,-25.2979 43,-7.5 43,-7.5 43,-7.5 100.997,-7.5 100.997,-7.5"/>
<polygon fill="#6677dd" fill-opacity="0.666667" stroke="#6677dd" stroke-width=".7" stroke-opacity="0.666667" points="100.9971,-9.2501 105.997,-7.5 100.997,-5.7501 100.9971,-9.2501"/>
</g>
<!-- src/wrapper/wrap.js -->
<g id="node8" class="node">
<title>src/wrapper/wrap.js</title>
<g id="a_node8"><a xlink:href="src/wrapper/wrap.js" xlink:title="wrap.js">
<polygon fill="#f6f6aa" stroke="transparent" stroke-width=".4" points="160,-55 106,-55 106,-40 160,-40 160,-55"/>
<text text-anchor="middle" x="133" y="-46.2" font-family="monospace" font-size="6.00" fill="#000000">wrap.js</text>
</a>
</g>
</g>
<!-- src/index.js&#45;&gt;src/wrapper/wrap.js -->
<g id="edge4" class="edge">
<title>src/index.js&#45;&gt;src/wrapper/wrap.js</title>
<path fill="none" stroke="#6677dd" stroke-width=".7" stroke-opacity="0.666667" d="M70.003,-45.5C70.003,-45.5 100.705,-45.5 100.705,-45.5"/>
<polygon fill="#6677dd" fill-opacity="0.666667" stroke="#6677dd" stroke-width=".7" stroke-opacity="0.666667" points="100.7051,-47.2501 105.705,-45.5 100.705,-43.7501 100.7051,-47.2501"/>
</g>
<!-- src/wrapper/wrap.js&#45;&gt;@babel -->
<g id="edge14" class="edge">
<title>src/wrapper/wrap.js&#45;&gt;@babel</title>
<path fill="none" stroke="#6677dd" stroke-width=".7" stroke-opacity="0.666667" d="M160.2148,-45C169.6916,-45 178,-45 178,-45 178,-45 178,-7.5 178,-7.5 178,-7.5 213.4341,-7.5 213.4341,-7.5"/>
<polygon fill="#6677dd" fill-opacity="0.666667" stroke="#6677dd" stroke-width=".7" stroke-opacity="0.666667" points="213.4341,-9.2501 218.4341,-7.5 213.4341,-5.7501 213.4341,-9.2501"/>
</g>
<!-- src/wrapper/wrap.js&#45;&gt;src/function/getFunction.js -->
<g id="edge10" class="edge">
<title>src/wrapper/wrap.js&#45;&gt;src/function/getFunction.js</title>
<path fill="none" stroke="#6677dd" stroke-width=".7" stroke-opacity="0.666667" d="M147,-55.0373C147,-73.6887 147,-120.5 147,-120.5 147,-120.5 205.7726,-120.5 205.7726,-120.5"/>
<polygon fill="#6677dd" fill-opacity="0.666667" stroke="#6677dd" stroke-width=".7" stroke-opacity="0.666667" points="205.7726,-122.2501 210.7726,-120.5 205.7725,-118.7501 205.7726,-122.2501"/>
</g>
<!-- src/messages/ErrorMessage.js -->
<g id="node10" class="node">
<title>src/messages/ErrorMessage.js</title>
<g id="a_node10"><a xlink:href="src/messages/ErrorMessage.js" xlink:title="ErrorMessage.js">
<polygon fill="#f6f6aa" stroke="transparent" stroke-width=".4" points="282,-235 209,-235 209,-220 282,-220 282,-235"/>
<text text-anchor="middle" x="245.5" y="-226.2" font-family="monospace" font-size="6.00" fill="#000000">ErrorMessage.js</text>
</a>
</g>
</g>
<!-- src/wrapper/wrap.js&#45;&gt;src/messages/ErrorMessage.js -->
<g id="edge11" class="edge">
<title>src/wrapper/wrap.js&#45;&gt;src/messages/ErrorMessage.js</title>
<path fill="none" stroke="#6677dd" stroke-width=".7" stroke-opacity="0.666667" d="M133,-55.2344C133,-89.6875 133,-227.5 133,-227.5 133,-227.5 203.9745,-227.5 203.9745,-227.5"/>
<polygon fill="#6677dd" fill-opacity="0.666667" stroke="#6677dd" stroke-width=".7" stroke-opacity="0.666667" points="203.9745,-229.2501 208.9745,-227.5 203.9744,-225.7501 203.9745,-229.2501"/>
</g>
<!-- src/results/Result.js -->
<g id="node13" class="node">
<title>src/results/Result.js</title>
<g id="a_node13"><a xlink:href="src/results/Result.js" xlink:title="Result.js">
<polygon fill="#f6f6aa" stroke="transparent" stroke-width=".4" points="272.5,-325 218.5,-325 218.5,-310 272.5,-310 272.5,-325"/>
<text text-anchor="middle" x="245.5" y="-316.2" font-family="monospace" font-size="6.00" fill="#000000">Result.js</text>
</a>
</g>
</g>
<!-- src/wrapper/wrap.js&#45;&gt;src/results/Result.js -->
<g id="edge12" class="edge">
<title>src/wrapper/wrap.js&#45;&gt;src/results/Result.js</title>
<path fill="none" stroke="#6677dd" stroke-width=".7" stroke-opacity="0.666667" d="M120,-55.0031C120,-98.6101 120,-317.5 120,-317.5 120,-317.5 213.2684,-317.5 213.2684,-317.5"/>
<polygon fill="#6677dd" fill-opacity="0.666667" stroke="#6677dd" stroke-width=".7" stroke-opacity="0.666667" points="213.2684,-319.2501 218.2684,-317.5 213.2683,-315.7501 213.2684,-319.2501"/>
</g>
<!-- src/wrapper/defaultErrorHandler.js -->
<g id="node15" class="node">
<title>src/wrapper/defaultErrorHandler.js</title>
<g id="a_node15"><a xlink:href="src/wrapper/defaultErrorHandler.js" xlink:title="defaultErrorHandler.js">
<polygon fill="#f6f6aa" stroke="transparent" stroke-width=".4" points="295,-55 196,-55 196,-40 295,-40 295,-55"/>
<text text-anchor="middle" x="245.5" y="-46.2" font-family="monospace" font-size="6.00" fill="#000000">defaultErrorHandler.js</text>
</a>
</g>
</g>
<!-- src/wrapper/wrap.js&#45;&gt;src/wrapper/defaultErrorHandler.js -->
<g id="edge13" class="edge">
<title>src/wrapper/wrap.js&#45;&gt;src/wrapper/defaultErrorHandler.js</title>
<path fill="none" stroke="#6677dd" stroke-width=".7" stroke-opacity="0.666667" d="M160.2331,-50C160.2331,-50 190.6543,-50 190.6543,-50"/>
<polygon fill="#6677dd" fill-opacity="0.666667" stroke="#6677dd" stroke-width=".7" stroke-opacity="0.666667" points="190.6544,-51.7501 195.6543,-50 190.6543,-48.2501 190.6544,-51.7501"/>
</g>
<!-- src/messages/CompileError.js -->
<g id="node9" class="node">
<title>src/messages/CompileError.js</title>
<g id="a_node9"><a xlink:href="src/messages/CompileError.js" xlink:title="CompileError.js">
<polygon fill="#f6f6aa" stroke="transparent" stroke-width=".4" points="404,-235 331,-235 331,-220 404,-220 404,-235"/>
<text text-anchor="middle" x="367.5" y="-226.2" font-family="monospace" font-size="6.00" fill="#000000">CompileError.js</text>
</a>
</g>
</g>
<!-- src/messages/ErrorMessage.js&#45;&gt;src/messages/CompileError.js -->
<g id="edge6" class="edge">
<title>src/messages/ErrorMessage.js&#45;&gt;src/messages/CompileError.js</title>
<path fill="none" stroke="#6677dd" stroke-width=".7" stroke-opacity="0.666667" d="M282.104,-227.5C282.104,-227.5 325.9218,-227.5 325.9218,-227.5"/>
<polygon fill="#6677dd" fill-opacity="0.666667" stroke="#6677dd" stroke-width=".7" stroke-opacity="0.666667" points="325.9218,-229.2501 330.9218,-227.5 325.9218,-225.7501 325.9218,-229.2501"/>
</g>
<!-- src/messages/RuntimeError.js -->
<g id="node11" class="node">
<title>src/messages/RuntimeError.js</title>
<g id="a_node11"><a xlink:href="src/messages/RuntimeError.js" xlink:title="RuntimeError.js">
<polygon fill="#f6f6aa" stroke="transparent" stroke-width=".4" points="404,-268 331,-268 331,-253 404,-253 404,-268"/>
<text text-anchor="middle" x="367.5" y="-259.2" font-family="monospace" font-size="6.00" fill="#000000">RuntimeError.js</text>
</a>
</g>
</g>
<!-- src/messages/ErrorMessage.js&#45;&gt;src/messages/RuntimeError.js -->
<g id="edge7" class="edge">
<title>src/messages/ErrorMessage.js&#45;&gt;src/messages/RuntimeError.js</title>
<path fill="none" stroke="#6677dd" stroke-width=".7" stroke-opacity="0.666667" d="M278,-235.1538C278,-244.9023 278,-260.5 278,-260.5 278,-260.5 325.8387,-260.5 325.8387,-260.5"/>
<polygon fill="#6677dd" fill-opacity="0.666667" stroke="#6677dd" stroke-width=".7" stroke-opacity="0.666667" points="325.8387,-262.2501 330.8387,-260.5 325.8387,-258.7501 325.8387,-262.2501"/>
</g>
<!-- src/results/Failure.js -->
<g id="node12" class="node">
<title>src/results/Failure.js</title>
<g id="a_node12"><a xlink:href="src/results/Failure.js" xlink:title="Failure.js">
<polygon fill="#f6f6aa" stroke="transparent" stroke-width=".4" points="394.5,-325 340.5,-325 340.5,-310 394.5,-310 394.5,-325"/>
<text text-anchor="middle" x="367.5" y="-316.2" font-family="monospace" font-size="6.00" fill="#000000">Failure.js</text>
</a>
</g>
</g>
<!-- src/results/Result.js&#45;&gt;src/results/Failure.js -->
<g id="edge8" class="edge">
<title>src/results/Result.js&#45;&gt;src/results/Failure.js</title>
<path fill="none" stroke="#6677dd" stroke-width=".7" stroke-opacity="0.666667" d="M272.5758,-317.5C272.5758,-317.5 335.4999,-317.5 335.4999,-317.5"/>
<polygon fill="#6677dd" fill-opacity="0.666667" stroke="#6677dd" stroke-width=".7" stroke-opacity="0.666667" points="335.5,-319.2501 340.4999,-317.5 335.4999,-315.7501 335.5,-319.2501"/>
</g>
<!-- src/results/Success.js -->
<g id="node14" class="node">
<title>src/results/Success.js</title>
<g id="a_node14"><a xlink:href="src/results/Success.js" xlink:title="Success.js">
<polygon fill="#f6f6aa" stroke="transparent" stroke-width=".4" points="394.5,-358 340.5,-358 340.5,-343 394.5,-343 394.5,-358"/>
<text text-anchor="middle" x="367.5" y="-349.2" font-family="monospace" font-size="6.00" fill="#000000">Success.js</text>
</a>
</g>
</g>
<!-- src/results/Result.js&#45;&gt;src/results/Success.js -->
<g id="edge9" class="edge">
<title>src/results/Result.js&#45;&gt;src/results/Success.js</title>
<path fill="none" stroke="#6677dd" stroke-width=".7" stroke-opacity="0.666667" d="M246,-325.1538C246,-334.9023 246,-350.5 246,-350.5 246,-350.5 335.233,-350.5 335.233,-350.5"/>
<polygon fill="#6677dd" fill-opacity="0.666667" stroke="#6677dd" stroke-width=".7" stroke-opacity="0.666667" points="335.2331,-352.2501 340.233,-350.5 335.233,-348.7501 335.2331,-352.2501"/>
</g>
</g>
</svg>
